<svg width="560" height="220" viewBox="0 0 560 220" fill="none" xmlns="http://www.w3.org/2000/svg"><defs><linearGradient id="b" x1="0" y1="0" x2="560" y2="220"><stop stop-color="#0B1020"/><stop offset="1" stop-color="#10182F"/></linearGradient></defs><rect width="560" height="220" rx="24" fill="url(#b)"/><g opacity=".13" stroke="#A78BFA"><path d="M0 55H560M0 110H560M0 165H560"/><path d="M70 0V220M140 0V220M210 0V220M280 0V220M350 0V220M420 0V220M490 0V220"/></g><g stroke="#60A5FA" stroke-width="2"><path d="M326 62L385 92L447 68L487 115L427 154L362 132L326 62"/><path d="M385 92L362 132M447 68L427 154"/></g><g fill="#60A5FA"><circle cx="326" cy="62" r="6"/><circle cx="385" cy="92" r="6"/><circle cx="447" cy="68" r="6"/><circle cx="487" cy="115" r="6"/><circle cx="427" cy="154" r="6"/><circle cx="362" cy="132" r="6"/></g><path d="M323 173C370 155 411 175 458 145" stroke="#F472B6" stroke-width="2" stroke-dasharray="5 8"><animate attributeName="stroke-dashoffset" values="0;-52" dur="4.5s" repeatCount="indefinite"/></path><text x="30" y="52" fill="#EEF2FF" font-family="Inter,Segoe UI,Arial" font-size="23" font-weight="700">Smart Grid IDS</text><text x="31" y="82" fill="#A5B4FC" font-family="ui-monospace,Menlo" font-size="12">security · ML · evaluation</text><text x="31" y="165" fill="#94A3B8" font-family="Inter,Segoe UI,Arial" font-size="12">IEC 60870-5-104 intrusion detection</text><text x="31" y="188" fill="#475569" font-family="ui-monospace,Menlo" font-size="10">traffic / benchmark / publish</text></svg>